<svg xmlns="http://www.w3.org/2000/svg" xmlns:xlink="http://www.w3.org/1999/xlink" version="1.1" id="Your_Icon" x="0px" y="0px" width="100px" height="100px" viewBox="0 0 100 100" enable-background="new 0 0 100 100" xml:space="preserve">
<g>
	<g>
		<path d="M85.102,91.125H14.338c-3.326,0-6.03-2.709-6.03-6.03V14.33c0-3.324,2.704-6.029,6.03-6.029h70.764    c3.325,0,6.03,2.705,6.03,6.029v70.765C91.132,88.416,88.427,91.125,85.102,91.125z M14.338,14.208    c-0.068,0-0.123,0.055-0.123,0.122v70.765c0,0.066,0.055,0.121,0.123,0.121h70.764c0.068,0,0.122-0.055,0.122-0.121V14.33    c0-0.066-0.054-0.122-0.122-0.122H14.338z"/>
	</g>
	<g>
		<circle cx="31.702" cy="49.71" r="6.174"/>
	</g>
	<g>
		<circle cx="67.732" cy="49.71" r="6.173"/>
	</g>
	<g>
		<ellipse cx="31.161" cy="19.529" rx="20.558" ry="10.761"/>
	</g>
	<g>
		<ellipse cx="49.247" cy="22.852" rx="20.557" ry="12.075"/>
	</g>
	<g>
		<ellipse cx="68.801" cy="19.529" rx="20.556" ry="10.761"/>
	</g>
	<g>
		<path d="M12.15,55.329c0,1.566-1.263,2.835-2.818,2.835h-4.07c-1.554,0-2.814-1.269-2.814-2.835V40.835    C2.447,39.269,3.708,38,5.262,38h4.07c1.556,0,2.818,1.269,2.818,2.835V55.329z"/>
	</g>
	<g>
		<path d="M97,55.329c0,1.566-1.27,2.835-2.835,2.835h-4.097c-1.565,0-2.834-1.269-2.834-2.835V40.835    c0-1.566,1.269-2.835,2.834-2.835h4.097C95.73,38,97,39.269,97,40.835V55.329z"/>
	</g>
	<g>
		<path d="M41.391,41.716c0,0.81-0.528,1.466-1.182,1.466H23.196c-0.652,0-1.181-0.656-1.181-1.466V40.37    c0-0.81,0.528-1.464,1.181-1.464h17.013c0.653,0,1.182,0.655,1.182,1.464V41.716z"/>
	</g>
	<g>
		<path d="M77.422,41.716c0,0.81-0.529,1.466-1.183,1.466H59.226c-0.651,0-1.181-0.656-1.181-1.466V40.37    c0-0.81,0.529-1.464,1.181-1.464h17.014c0.653,0,1.183,0.655,1.183,1.464V41.716z"/>
	</g>
	<g>
		<path d="M63.07,74.781h-1.298c-1.885-2.455-5.31-5.196-11.228-5.196l-0.009,0.007l-0.008-0.007c-5.917,0-9.343,2.741-11.227,5.196    h-1.299h-2.815c0,0,2.952-10.396,15.34-10.396l0.009,0.01l0.012-0.01c12.386,0,15.337,10.396,15.337,10.396H63.07z"/>
	</g>
</g>
</svg>